<svg width="108" height="28" viewBox="0 0 108 28" fill="none" xmlns="http://www.w3.org/2000/svg">
<rect width="108" height="28" rx="2" fill="#020618"/>
<path d="M15 8H7Z" fill="#F8FAFC"/>
<path d="M15 9H16V7H15V8V9ZM7 7C6.44772 7 6 7.44772 6 8C6 8.55228 6.44772 9 7 9V8V7ZM15 8V7H7V8V9H15V8Z" fill="#F8FAFC"/>
<path d="M20 14H7Z" fill="#F8FAFC"/>
<path d="M20 14H7" stroke="#F8FAFC" stroke-width="2" stroke-linecap="round" stroke-linejoin="round"/>
<path d="M13 20H7Z" fill="#F8FAFC"/>
<path d="M13 20H7" stroke="#F8FAFC" stroke-width="2" stroke-linecap="round" stroke-linejoin="round"/>
<path d="M18 5.66682C18 5.54953 18.0347 5.4343 18.1008 5.33277C18.1669 5.23125 18.262 5.14702 18.3764 5.08859C18.4908 5.03016 18.6205 4.99961 18.7525 5C18.8844 5.0004 19.0139 5.03174 19.1279 5.09086L23.6264 7.42337C23.74 7.48193 23.8342 7.56594 23.8998 7.66702C23.9653 7.7681 23.9999 7.88271 24 7.99938C24.0001 8.11605 23.9658 8.23071 23.9004 8.33189C23.8351 8.43307 23.741 8.51723 23.6276 8.57596L19.1279 10.9091C19.0139 10.9683 18.8844 10.9996 18.7525 11C18.6205 11.0004 18.4908 10.9698 18.3764 10.9114C18.262 10.853 18.1669 10.7688 18.1008 10.6672C18.0347 10.5657 18 10.4505 18 10.3332V5.66682Z" fill="#F8FAFC"/>
<path d="M32.6 21V6.8H38.1C39.7667 6.8 41.0667 7.2 42 8C42.9333 8.8 43.4 9.90667 43.4 11.32C43.4 12.2667 43.1867 13.0867 42.76 13.78C42.3333 14.46 41.7267 14.98 40.94 15.34C40.1533 15.7 39.2067 15.88 38.1 15.88H35.2V21H32.6ZM35.2 13.62H37.98C38.86 13.62 39.5333 13.4267 40 13.04C40.48 12.6533 40.72 12.08 40.72 11.32C40.72 10.5733 40.48 10.0133 40 9.64C39.5333 9.25333 38.86 9.06 37.98 9.06H35.2V13.62ZM48.2413 21C47.4679 21 46.8479 20.8 46.3813 20.4C45.9146 20 45.6813 19.36 45.6813 18.48V6.8H48.2413V18.22C48.2413 18.4867 48.3079 18.6867 48.4413 18.82C48.5879 18.9533 48.7879 19.02 49.0413 19.02H49.8213V21H48.2413ZM54.6797 21.24C53.5597 21.24 52.6597 20.9867 51.9797 20.48C51.2997 19.96 50.9597 19.24 50.9597 18.32C50.9597 17.4 51.2464 16.68 51.8197 16.16C52.393 15.64 53.2664 15.2667 54.4397 15.04L57.9797 14.34C57.9797 13.58 57.8064 13.0133 57.4597 12.64C57.113 12.2533 56.5997 12.06 55.9197 12.06C55.3064 12.06 54.8197 12.2067 54.4597 12.5C54.113 12.78 53.873 13.1867 53.7397 13.72L51.1397 13.6C51.353 12.4667 51.873 11.6 52.6997 11C53.5264 10.3867 54.5997 10.08 55.9197 10.08C57.4397 10.08 58.5864 10.4667 59.3597 11.24C60.1464 12 60.5397 13.0933 60.5397 14.52V18.4C60.5397 18.68 60.5864 18.8733 60.6797 18.98C60.7864 19.0867 60.9397 19.14 61.1397 19.14H61.4797V21C61.3997 21.0267 61.2664 21.0467 61.0797 21.06C60.9064 21.0733 60.7264 21.08 60.5397 21.08C60.0997 21.08 59.7064 21.0133 59.3597 20.88C59.013 20.7333 58.7464 20.4867 58.5597 20.14C58.373 19.78 58.2797 19.2933 58.2797 18.68L58.4997 18.84C58.393 19.3067 58.1597 19.7267 57.7997 20.1C57.453 20.46 57.013 20.74 56.4797 20.94C55.9464 21.14 55.3464 21.24 54.6797 21.24ZM55.1997 19.38C55.773 19.38 56.2664 19.2667 56.6797 19.04C57.093 18.8133 57.413 18.5 57.6397 18.1C57.8664 17.7 57.9797 17.2267 57.9797 16.68V16.08L55.2197 16.64C54.6464 16.76 54.233 16.94 53.9797 17.18C53.7397 17.4067 53.6197 17.7067 53.6197 18.08C53.6197 18.4933 53.753 18.8133 54.0197 19.04C54.2997 19.2667 54.693 19.38 55.1997 19.38ZM63.3163 24V22.02H64.6763C65.0229 22.02 65.2763 21.9667 65.4363 21.86C65.6096 21.7533 65.7429 21.5733 65.8363 21.32L66.1363 20.58H65.3963L61.5763 10.32H64.2363L66.9163 18.18L69.4763 10.32H72.1363L67.9563 22.12C67.7163 22.7867 67.3763 23.2667 66.9363 23.56C66.5096 23.8533 65.9096 24 65.1363 24H63.3163ZM76.3272 21C75.5539 21 74.9339 20.8 74.4672 20.4C74.0005 20 73.7672 19.36 73.7672 18.48V6.8H76.3272V18.22C76.3272 18.4867 76.3939 18.6867 76.5272 18.82C76.6739 18.9533 76.8739 19.02 77.1272 19.02H77.9072V21H76.3272ZM79.5484 21V10.32H82.1084V21H79.5484ZM79.5084 8.9V6.62H82.1684V8.9H79.5084ZM89.0642 21.24C88.0109 21.24 87.1242 21.0867 86.4042 20.78C85.6976 20.4733 85.1509 20.0467 84.7642 19.5C84.3776 18.9533 84.1576 18.3333 84.1042 17.64L86.7242 17.52C86.8176 18.08 87.0509 18.5133 87.4242 18.82C87.7976 19.1267 88.3509 19.28 89.0842 19.28C89.6842 19.28 90.1509 19.1867 90.4842 19C90.8309 18.8 91.0042 18.4933 91.0042 18.08C91.0042 17.84 90.9442 17.64 90.8242 17.48C90.7042 17.32 90.4776 17.18 90.1442 17.06C89.8109 16.94 89.3176 16.82 88.6642 16.7C87.5709 16.5133 86.7109 16.2867 86.0842 16.02C85.4576 15.74 85.0109 15.3933 84.7442 14.98C84.4909 14.5667 84.3642 14.0533 84.3642 13.44C84.3642 12.44 84.7442 11.6333 85.5042 11.02C86.2776 10.3933 87.4042 10.08 88.8842 10.08C89.8442 10.08 90.6509 10.24 91.3042 10.56C91.9576 10.8667 92.4642 11.2933 92.8242 11.84C93.1976 12.3733 93.4309 12.9867 93.5242 13.68L90.9442 13.8C90.8776 13.44 90.7576 13.1267 90.5842 12.86C90.4109 12.5933 90.1776 12.3933 89.8842 12.26C89.5909 12.1133 89.2442 12.04 88.8442 12.04C88.2442 12.04 87.7909 12.16 87.4842 12.4C87.1776 12.64 87.0242 12.96 87.0242 13.36C87.0242 13.64 87.0909 13.8733 87.2242 14.06C87.3709 14.2467 87.6042 14.4 87.9242 14.52C88.2442 14.6267 88.6709 14.7267 89.2042 14.82C90.3242 14.9933 91.2042 15.22 91.8442 15.5C92.4976 15.7667 92.9576 16.1133 93.2242 16.54C93.5042 16.9533 93.6442 17.4533 93.6442 18.04C93.6442 18.72 93.4509 19.3 93.0642 19.78C92.6909 20.26 92.1576 20.6267 91.4642 20.88C90.7842 21.12 89.9842 21.24 89.0642 21.24ZM99.5511 21C98.4844 21 97.6978 20.7533 97.1911 20.26C96.6978 19.7667 96.4511 18.9933 96.4511 17.94V7.82H99.0111V17.7C99.0111 18.1933 99.1178 18.54 99.3311 18.74C99.5444 18.9267 99.8778 19.02 100.331 19.02H101.831V21H99.5511ZM94.7711 12.3V10.32H101.831V12.3H94.7711Z" fill="#F8FAFC"/>
</svg>
